<?xml version="1.0" standalone="no"?>
<!DOCTYPE svg PUBLIC "-//W3C//DTD SVG 20010904//EN"
 "http://www.w3.org/TR/2001/REC-SVG-20010904/DTD/svg10.dtd">
<svg version="1.0" xmlns="http://www.w3.org/2000/svg"
 width="512.000000pt" height="512.000000pt" viewBox="0 0 512.000000 512.000000"
 preserveAspectRatio="xMidYMid meet">

<g transform="translate(0.000000,512.000000) scale(0.100000,-0.100000)"
fill="#000000" stroke="none">
<path d="M1250 4885 c-173 -27 -373 -109 -519 -212 -36 -26 -107 -88 -156
-137 -143 -144 -239 -302 -300 -496 -55 -177 -55 -172 -55 -1480 0 -1319 0
-1305 59 -1491 62 -191 158 -347 306 -494 184 -184 418 -302 675 -341 143 -21
2460 -21 2603 1 526 79 943 497 1022 1024 22 142 22 2460 0 2602 -79 527 -496
945 -1022 1024 -137 21 -2480 21 -2613 0z m2685 -218 c360 -98 633 -372 733
-732 l27 -100 0 -1275 0 -1275 -27 -100 c-100 -360 -373 -633 -733 -733 l-100
-27 -1270 0 -1270 0 -88 22 c-223 57 -417 177 -552 343 -113 138 -189 304
-219 479 -14 83 -16 235 -16 1291 0 1056 2 1208 16 1291 73 426 403 758 829
833 67 12 287 14 1325 13 l1245 -2 100 -28z"/>
<path d="M1270 4164 c-308 -82 -412 -474 -186 -700 241 -240 651 -107 709 230
51 296 -230 548 -523 470z m211 -212 c160 -84 156 -308 -7 -388 -196 -96 -394
125 -278 312 37 61 113 104 184 104 33 0 64 -9 101 -28z"/>
<path d="M3157 3175 c-100 -19 -219 -65 -296 -115 l-61 -40 0 41 c0 51 -21 92
-55 107 -18 9 -124 12 -366 12 -371 0 -385 -2 -408 -57 -8 -21 -11 -277 -9
-988 l3 -960 28 -57 c32 -65 89 -121 156 -152 43 -19 65 -21 305 -24 185 -2
267 0 288 9 59 24 58 10 58 686 0 711 -7 658 97 709 54 27 67 29 173 29 155 0
185 -12 274 -110 37 -42 66 -78 63 -81 -10 -10 -59 21 -72 45 -12 23 -14 -58
-15 -592 0 -671 -1 -660 55 -685 37 -17 693 -17 730 0 56 26 55 5 55 791 0
823 2 797 -85 972 -108 216 -294 371 -530 440 -114 33 -274 41 -388 20z m333
-211 c179 -53 326 -176 408 -340 63 -124 62 -117 62 -833 l0 -651 -220 0 -220
0 0 598 0 597 -24 50 c-62 135 -235 206 -466 192 -202 -12 -341 -90 -404 -226
-20 -45 -21 -60 -24 -628 l-3 -583 -175 0 c-137 0 -181 3 -204 15 -63 32 -60
-12 -60 950 l0 875 220 0 220 0 0 -100 c0 -110 11 -145 51 -166 59 -30 79 -21
202 88 102 89 210 148 322 172 85 19 235 14 315 -10z"/>
<path d="M1011 3166 c-52 -29 -50 16 -51 -1104 0 -1133 -2 -1084 55 -1110 37
-17 693 -17 730 0 57 26 55 -23 55 1107 0 785 -3 1046 -12 1066 -24 53 -38 55
-410 55 -265 -1 -348 -4 -367 -14z m589 -1106 l0 -920 -220 0 -220 0 0 920 0
920 220 0 220 0 0 -920z"/>
</g>
</svg>
